<?xml version="1.0" encoding="UTF-8"?>
<svg version="1.1" xmlns="http://www.w3.org/2000/svg" width="414" height="254">
<path d="M0 0 C0.97821716 -0.01283524 1.95643433 -0.02567047 2.96429443 -0.03889465 C4.54866302 -0.04997505 4.54866302 -0.04997505 6.16503906 -0.0612793 C7.25399475 -0.06935104 8.34295044 -0.07742279 9.46490479 -0.08573914 C11.77150889 -0.09957579 14.07813343 -0.11029981 16.38476562 -0.11816406 C19.90306673 -0.13536314 23.42042485 -0.17925276 26.93847656 -0.22338867 C29.18065716 -0.23351701 31.42284574 -0.24203267 33.66503906 -0.2487793 C34.71318787 -0.26628738 35.76133667 -0.28379547 36.84124756 -0.30183411 C43.17950569 -0.28311941 47.0884264 0.28802855 52.18066406 4.17700195 C54.07006836 6.5168457 54.07006836 6.5168457 55.50488281 9.11450195 C56.32738525 10.56735596 56.32738525 10.56735596 57.16650391 12.04956055 C57.72805176 13.08161621 58.28959961 14.11367188 58.86816406 15.17700195 C60.08156039 17.33666999 61.29643126 19.49551014 62.51269531 21.65356445 C63.11936035 22.74056641 63.72602539 23.82756836 64.35107422 24.94750977 C67.63807021 30.74953579 71.13506146 36.42500869 74.62475586 42.10668945 C75.09437744 42.88012695 75.56399902 43.65356445 76.04785156 44.45043945 C76.46147949 45.12510254 76.87510742 45.79976562 77.30126953 46.49487305 C78.18066406 48.17700195 78.18066406 48.17700195 78.18066406 50.17700195 C107.22066406 49.84700195 136.26066406 49.51700195 166.18066406 49.17700195 C159.25066406 37.29700195 159.25066406 37.29700195 152.18066406 25.17700195 C148.23665103 18.27497915 147.15957731 15.60194145 148.18066406 8.17700195 C149.54792436 4.60693341 150.58961102 3.53065389 153.86082458 1.573349 C157.5646423 0.0154981 160.16783436 -0.20914803 164.1730957 -0.22705078 C165.1818425 -0.23734566 165.1818425 -0.23734566 166.21096802 -0.24784851 C168.42113753 -0.26605671 170.63059227 -0.26228446 172.84082031 -0.2565918 C174.39294156 -0.26115978 175.94506079 -0.26646717 177.49717712 -0.2724762 C180.74942233 -0.28139809 184.00142193 -0.27899869 187.25366211 -0.26904297 C191.3867924 -0.25761375 195.51906057 -0.2776753 199.65207767 -0.30696011 C202.86009468 -0.32547299 206.06791142 -0.32499897 209.27596855 -0.31932259 C210.7975427 -0.31917089 212.31913178 -0.32508778 213.84065437 -0.33761406 C228.27414094 -0.43962268 240.45263485 1.68243854 251.07910156 12.0246582 C256.72648148 18.01755293 260.48830405 24.86868182 261.18066406 33.17700195 C261.27541016 34.2443457 261.27541016 34.2443457 261.37207031 35.33325195 C261.58352598 39.42594223 261.36559646 41.79291159 259.55566406 45.55200195 C256.81501449 48.58114096 255.08015969 49.92622034 251.18066406 51.17700195 C246.60787881 51.37090097 243.1909433 50.77887044 239.24316406 48.42700195 C236.58720792 45.52959525 235.59287116 43.07238414 234.76269531 39.25512695 C233.74839403 34.64309035 232.62937777 31.62571566 229.18066406 28.17700195 C226.42481054 27.25838411 224.82105716 27.05495873 221.98461914 27.06347656 C220.72365166 27.06358986 220.72365166 27.06358986 219.43721008 27.06370544 C218.53399521 27.06886673 217.63078033 27.07402802 216.70019531 27.0793457 C215.77220627 27.08076065 214.84421722 27.0821756 213.8881073 27.08363342 C210.92309348 27.08923259 207.95815507 27.10178491 204.99316406 27.11450195 C202.98339953 27.11951706 200.97363381 27.12407995 198.96386719 27.12817383 C194.03610374 27.13920174 189.10839669 27.15646578 184.18066406 27.17700195 C184.68202881 27.98564697 185.18339355 28.79429199 185.69995117 29.62744141 C190.1444774 36.8190737 194.49971516 44.05178073 198.74316406 51.36450195 C199.61739014 52.8669043 199.61739014 52.8669043 200.50927734 54.3996582 C207.43139667 66.3071 214.30876487 78.24052758 221.18066406 90.17700195 C221.85323242 89.96841553 222.52580078 89.7598291 223.21875 89.54492188 C224.10852539 89.27268799 224.99830078 89.0004541 225.91503906 88.7199707 C226.79385742 88.44950928 227.67267578 88.17904785 228.578125 87.90039062 C247.02361288 82.77337556 269.08435671 86.19498546 285.80566406 94.98950195 C294.54915168 100.0163774 301.97972061 105.15391338 308.18066406 113.17700195 C308.839375 114.01231445 309.49808594 114.84762695 310.17675781 115.70825195 C318.08129815 126.10817649 322.90310214 136.29348001 325.18066406 149.17700195 C325.31214844 149.90661133 325.44363281 150.6362207 325.57910156 151.38793945 C328.60282824 171.40991339 322.92292319 190.19399473 311.52050781 206.55981445 C302.33578721 218.90374419 288.81570843 228.40365139 274.18066406 233.17700195 C273.36082031 233.46188477 272.54097656 233.74676758 271.69628906 234.0402832 C261.96039593 237.23014881 252.22842704 237.32362786 242.05566406 237.23950195 C240.47785156 237.23273438 240.47785156 237.23273438 238.86816406 237.22583008 C236.30560185 237.21418207 233.74316529 237.19782748 231.18066406 237.17700195 C231.18066406 236.51700195 231.18066406 235.85700195 231.18066406 235.17700195 C230.19066406 235.50700195 229.20066406 235.83700195 228.18066406 236.17700195 C225.82877959 235.57906522 223.49140811 234.91818401 221.18066406 234.17700195 C221.18066406 233.51700195 221.18066406 232.85700195 221.18066406 232.17700195 C220.30023438 232.06614258 219.41980469 231.9552832 218.51269531 231.84106445 C209.56000593 230.0568239 202.07688287 223.86502494 195.18066406 218.17700195 C193.66472656 217.06325195 193.66472656 217.06325195 192.11816406 215.92700195 C187.61388999 212.10707891 184.44352421 207.04289203 181.18066406 202.17700195 C180.22740234 200.76354492 180.22740234 200.76354492 179.25488281 199.3215332 C169.58636713 183.98026957 166.85388561 164.67900409 170.43066406 146.98950195 C174.1558883 131.627224 181.1363362 116.81468064 193.43066406 106.36450195 C194.13707031 105.75993164 194.84347656 105.15536133 195.57128906 104.5324707 C196.10238281 104.08516602 196.63347656 103.63786133 197.18066406 103.17700195 C195.99390747 101.09324233 194.80625954 99.00999808 193.61816406 96.92700195 C193.29525391 96.35981445 192.97234375 95.79262695 192.63964844 95.20825195 C191.94087747 93.98373903 191.2215242 92.77079762 190.48461914 91.56884766 C189.18066406 89.17700195 189.18066406 89.17700195 188.1048584 86.1796875 C186.52905332 82.43502165 185.11201015 80.01549892 182.18066406 77.17700195 C175.99823544 74.95132234 168.91662075 75.78680411 162.46582031 76.00512695 C160.52531694 76.0275254 158.58474543 76.04459898 156.64414978 76.05657959 C151.55087951 76.1022712 146.46175548 76.22001443 141.37011719 76.35302734 C136.16886495 76.47607383 130.96693844 76.53065056 125.76464844 76.59106445 C115.56817096 76.71953339 105.37476302 76.92416686 95.18066406 77.17700195 C96.74680896 80.00859873 98.31512356 82.83898839 99.88378906 85.66918945 C100.32094238 86.45962646 100.7580957 87.25006348 101.20849609 88.06445312 C104.04813678 93.18472945 106.95192574 98.26140713 109.93066406 103.30200195 C110.38368896 104.06891357 110.83671387 104.8358252 111.3034668 105.62597656 C111.67415283 106.24996338 112.04483887 106.8739502 112.42675781 107.5168457 C116.24485247 113.9636543 120.00753356 120.44296921 123.76831055 126.92333984 C126.7764753 132.09692302 129.81700068 137.24579628 132.93066406 142.35668945 C133.52903076 143.34580322 134.12739746 144.33491699 134.74389648 145.35400391 C135.88013448 147.2282812 137.02563643 149.09698492 138.18188477 150.95898438 C141.0485011 155.70536393 143.04477827 159.48410261 143.18066406 165.17700195 C141.61280923 170.31608168 139.84319854 173.42186794 135.18066406 176.17700195 C130.73147783 177.41288702 127.15524728 177.58068288 122.9206543 175.49951172 C116.21073543 170.39952147 112.11582858 160.80518873 108.11816406 153.55200195 C106.98156237 151.51605279 105.84349374 149.48092202 104.70410156 147.4465332 C104.12370117 146.40964355 103.54330078 145.37275391 102.9453125 144.30444336 C98.39371042 136.23775511 93.67429616 128.26707551 88.99072266 120.27661133 C87.09204566 117.02524862 85.20724222 113.76614153 83.32519531 110.50512695 C82.37858032 108.86918579 82.37858032 108.86918579 81.4128418 107.20019531 C80.20477348 105.11168389 78.99969431 103.0214396 77.7980957 100.92919922 C75.18297674 96.41778176 72.63686391 92.11369787 69.18066406 88.17700195 C68.8380957 88.66579834 68.49552734 89.15459473 68.14257812 89.65820312 C66.57363058 91.89482737 65.00216985 94.12967454 63.43066406 96.36450195 C62.89183594 97.13342773 62.35300781 97.90235352 61.79785156 98.69458008 C55.74178777 107.29862193 55.74178777 107.29862193 53.18066406 110.17700195 C52.52066406 110.17700195 51.86066406 110.17700195 51.18066406 110.17700195 C51.86128906 110.85762695 52.54191406 111.53825195 53.24316406 112.23950195 C53.69949219 112.69969727 54.15582031 113.15989258 54.62597656 113.6340332 C55.68874832 114.68879412 56.7678334 115.72730252 57.86035156 116.7512207 C73.26350922 131.43556434 76.56082488 151.29549941 77.31347656 171.79418945 C76.94353877 179.82401576 74.65667609 191.38498883 69.16113281 197.38012695 C68.50757813 197.9730957 67.85402344 198.56606445 67.18066406 199.17700195 C65.8902482 201.01272435 65.8902482 201.01272435 64.80566406 202.92700195 C55.46125777 218.23592291 41.32758594 229.58438008 24.18066406 235.17700195 C23.36082031 235.46188477 22.54097656 235.74676758 21.69628906 236.0402832 C2.69609916 242.2655007 -18.67839152 239.988583 -36.81933594 232.17700195 C-43.29789109 228.85259813 -49.10959417 224.67032047 -54.81933594 220.17700195 C-55.80933594 219.45512695 -56.79933594 218.73325195 -57.81933594 217.98950195 C-62.34425359 214.13903002 -65.53595614 209.07349291 -68.81933594 204.17700195 C-69.45484375 203.23469727 -70.09035156 202.29239258 -70.74511719 201.3215332 C-80.41363287 185.98026957 -83.14611439 166.67900409 -79.56933594 148.98950195 C-74.72998452 129.03272708 -64.18130017 112.12221827 -46.70996094 100.7902832 C-26.00934942 89.23710407 -5.30924374 85.1826524 18.18066406 90.17700195 C21.17363556 91.12865066 24.06932459 92.17924031 26.97363281 93.37231445 C29.25888984 94.34827396 29.25888984 94.34827396 32.18066406 94.17700195 C33.55375814 92.81964233 33.55375814 92.81964233 34.74707031 90.95043945 C35.22837402 90.25474854 35.70967773 89.55905762 36.20556641 88.84228516 C36.71297363 88.0864917 37.22038086 87.33069824 37.74316406 86.55200195 C38.80836471 84.98998121 39.87479153 83.428796 40.94238281 81.8684082 C41.47911621 81.08095215 42.01584961 80.29349609 42.56884766 79.48217773 C44.0800575 77.32088671 45.64751134 75.22610537 47.26269531 73.1418457 C47.97026978 72.2139624 47.97026978 72.2139624 48.69213867 71.26733398 C49.58242409 70.1065357 50.48769693 68.95703801 51.40942383 67.82104492 C52.80238408 66.06677468 52.80238408 66.06677468 54.18066406 63.17700195 C53.14705517 59.06287443 51.45926231 55.64397152 49.28222656 52.0246582 C48.72019531 51.08299805 48.15816406 50.14133789 47.57910156 49.17114258 C46.99386719 48.20370117 46.40863281 47.23625977 45.80566406 46.23950195 C44.65162476 44.31395647 43.49797017 42.38818035 42.34472656 40.4621582 C41.80106445 39.55481934 41.25740234 38.64748047 40.69726562 37.71264648 C40.19678711 36.87588379 39.69630859 36.03912109 39.18066406 35.17700195 C38.74979492 34.45754395 38.31892578 33.73808594 37.875 32.99682617 C35.18066406 28.41170735 35.18066406 28.41170735 35.18066406 26.17700195 C34.00036621 26.1927124 32.82006836 26.20842285 31.60400391 26.22460938 C27.20954254 26.2790609 22.8151108 26.31340734 18.42041016 26.34179688 C16.52127054 26.35684886 14.62216548 26.37729512 12.72314453 26.40332031 C9.98754325 26.43986187 7.25240306 26.45676434 4.51660156 26.4699707 C3.6726181 26.48545456 2.82863464 26.50093842 1.95907593 26.51689148 C-3.87494877 26.51854314 -8.13651787 25.58228711 -12.63183594 21.55200195 C-14.47285047 17.86997288 -14.94035549 14.27742924 -14.81933594 10.17700195 C-13.33149908 5.94841298 -11.68345238 3.47132109 -7.81933594 1.17700195 C-4.92127326 0.21098106 -3.01753612 0.03452215 0 0 Z M226.76269531 126.01831055 C224.10184783 129.64905336 224.04772065 132.65030821 224.01953125 137.02197266 C224.00992371 138.22364578 224.00031616 139.42531891 223.99041748 140.66340637 C223.9861676 141.96340073 223.98191772 143.26339508 223.97753906 144.6027832 C223.97178413 145.95175681 223.96602644 147.3007304 223.96026611 148.64970398 C223.94976525 151.47838725 223.94391684 154.30704218 223.94042969 157.13574219 C223.93495161 160.75046456 223.91093491 164.36480899 223.88245773 167.97941303 C223.86378027 170.76677016 223.85862302 173.55403724 223.85709381 176.34145164 C223.85261572 178.31893149 223.83399312 180.29636304 223.81512451 182.27375793 C223.81812561 183.48488754 223.82112671 184.69601715 223.82421875 185.94384766 C223.82057312 187.00513382 223.81692749 188.06641998 223.81317139 189.15986633 C224.24575281 192.71138421 225.34799298 195.12057853 227.18066406 198.17700195 C230.02150048 199.59742016 232.03543684 199.49152468 235.18066406 199.17700195 C237.48341962 197.30990285 238.85890277 195.82052454 240.18066406 193.17700195 C240.2653777 191.36358353 240.2878749 189.54706035 240.27832031 187.73168945 C240.27348633 186.11713867 240.27348633 186.11713867 240.26855469 184.4699707 C240.26017578 183.34204102 240.25179688 182.21411133 240.24316406 181.05200195 C240.23865234 179.91633789 240.23414063 178.78067383 240.22949219 177.6105957 C240.21768021 174.79934557 240.20120913 171.98819965 240.18066406 169.17700195 C240.77492188 169.1927124 241.36917969 169.20842285 241.98144531 169.22460938 C244.7144186 169.28756764 247.44723862 169.3261829 250.18066406 169.36450195 C251.11523438 169.38963867 252.04980469 169.41477539 253.01269531 169.44067383 C260.18836901 169.51594313 265.8921241 168.87047278 271.64160156 164.16137695 C276.48282887 158.50998507 278.7079787 154.35238934 279.55566406 146.86450195 C278.82569921 139.68651419 276.61523515 134.04378203 271.18066406 129.17700195 C266.01181353 124.9773109 262.15184302 123.86192237 255.49316406 123.84106445 C254.75364502 123.83440765 254.01412598 123.82775085 253.25219727 123.82089233 C251.69224528 123.81078976 250.13225029 123.80607457 248.57226562 123.80639648 C246.1884047 123.80201618 243.80638601 123.76565612 241.42285156 123.7277832 C239.90462871 123.72191585 238.38639709 123.71794591 236.86816406 123.71606445 C236.15764893 123.70169342 235.44713379 123.68732239 234.71508789 123.67251587 C231.31848973 123.7038273 229.49856309 123.9349185 226.76269531 126.01831055 Z M-23.23730469 128.01831055 C-25.89815217 131.64905336 -25.95227935 134.65030821 -25.98046875 139.02197266 C-25.99007629 140.22364578 -25.99968384 141.42531891 -26.00958252 142.66340637 C-26.0138324 143.96340073 -26.01808228 145.26339508 -26.02246094 146.6027832 C-26.02821587 147.95175681 -26.03397356 149.3007304 -26.03973389 150.64970398 C-26.05023475 153.47838725 -26.05608316 156.30704218 -26.05957031 159.13574219 C-26.06504839 162.75046456 -26.08906509 166.36480899 -26.11754227 169.97941303 C-26.13621973 172.76677016 -26.14137698 175.55403724 -26.14290619 178.34145164 C-26.14738428 180.31893149 -26.16600688 182.29636304 -26.18487549 184.27375793 C-26.18187439 185.48488754 -26.17887329 186.69601715 -26.17578125 187.94384766 C-26.17942688 189.00513382 -26.18307251 190.06641998 -26.18682861 191.15986633 C-25.75424719 194.71138421 -24.65200702 197.12057853 -22.81933594 200.17700195 C-19.97849952 201.59742016 -17.96456316 201.49152468 -14.81933594 201.17700195 C-12.51658038 199.30990285 -11.14109723 197.82052454 -9.81933594 195.17700195 C-9.7346223 193.36358353 -9.7121251 191.54706035 -9.72167969 189.73168945 C-9.72651367 188.11713867 -9.72651367 188.11713867 -9.73144531 186.4699707 C-9.73982422 185.34204102 -9.74820313 184.21411133 -9.75683594 183.05200195 C-9.76134766 181.91633789 -9.76585938 180.78067383 -9.77050781 179.6105957 C-9.78231979 176.79934557 -9.79879087 173.98819965 -9.81933594 171.17700195 C-9.23031494 171.19794922 -8.64129395 171.21889648 -8.03442383 171.24047852 C-5.31707433 171.32458885 -2.59999985 171.37595662 0.11816406 171.42700195 C1.04435547 171.46051758 1.97054687 171.4940332 2.92480469 171.52856445 C10.56547815 171.63580198 16.51222338 170.1472753 22.52050781 165.2824707 C26.92338494 159.99686516 28.77252348 155.78224378 29.55566406 148.86450195 C28.82569921 141.68651419 26.61523515 136.04378203 21.18066406 131.17700195 C16.01181353 126.9773109 12.15184302 125.86192237 5.49316406 125.84106445 C4.75364502 125.83440765 4.01412598 125.82775085 3.25219727 125.82089233 C1.69224528 125.81078976 0.13225029 125.80607457 -1.42773438 125.80639648 C-3.8115953 125.80201618 -6.19361399 125.76565612 -8.57714844 125.7277832 C-10.09537129 125.72191585 -11.61360291 125.71794591 -13.13183594 125.71606445 C-13.84235107 125.70169342 -14.55286621 125.68732239 -15.28491211 125.67251587 C-18.68151027 125.7038273 -20.50143691 125.9349185 -23.23730469 128.01831055 Z M75.18066406 170.17700195 C76.18066406 173.17700195 76.18066406 173.17700195 76.18066406 173.17700195 Z " fill="#000000" transform="translate(84.8193359375,12.822998046875)"/>
<path d="M0 0 C3.27132607 -0.08081043 6.54066421 -0.14040709 9.8125 -0.1875 C10.74126953 -0.21263672 11.67003906 -0.23777344 12.62695312 -0.26367188 C13.9659668 -0.27817383 13.9659668 -0.27817383 15.33203125 -0.29296875 C16.56530151 -0.31653442 16.56530151 -0.31653442 17.82348633 -0.34057617 C20.52958353 0.08286809 21.36041539 0.84315228 23 3 C24.12303133 6.68996009 24.33738847 8.30988722 22.625 11.8125 C21 14 21 14 20 15 C18.5112814 15.08669432 17.018555 15.10703494 15.52734375 15.09765625 C14.62822266 15.09443359 13.72910156 15.09121094 12.80273438 15.08789062 C11.85720703 15.07951172 10.91167969 15.07113281 9.9375 15.0625 C8.98810547 15.05798828 8.03871094 15.05347656 7.06054688 15.04882812 C4.70700469 15.03700128 2.35349468 15.01906521 0 15 C0 10.05 0 5.1 0 0 Z " fill="#000000" transform="translate(75,154)"/>
<path d="M0 0 C3.27132607 -0.08081043 6.54066421 -0.14040709 9.8125 -0.1875 C10.74126953 -0.21263672 11.67003906 -0.23777344 12.62695312 -0.26367188 C13.9659668 -0.27817383 13.9659668 -0.27817383 15.33203125 -0.29296875 C16.56530151 -0.31653442 16.56530151 -0.31653442 17.82348633 -0.34057617 C20.52958353 0.08286809 21.36041539 0.84315228 23 3 C24.12303133 6.68996009 24.33738847 8.30988722 22.625 11.8125 C21 14 21 14 20 15 C18.5112814 15.08669432 17.018555 15.10703494 15.52734375 15.09765625 C14.62822266 15.09443359 13.72910156 15.09121094 12.80273438 15.08789062 C11.85720703 15.07951172 10.91167969 15.07113281 9.9375 15.0625 C8.98810547 15.05798828 8.03871094 15.05347656 7.06054688 15.04882812 C4.70700469 15.03700128 2.35349468 15.01906521 0 15 C0 10.05 0 5.1 0 0 Z " fill="#010101" transform="translate(325,152)"/>
<path d="M0 0 C0.33 0 0.66 0 1 0 C1 1.98 1 3.96 1 6 C0.67 6 0.34 6 0 6 C0 4.02 0 2.04 0 0 Z " fill="#030303" transform="translate(161,165)"/>
<path d="" fill="#000000" transform="translate(0,0)"/>
<path d="" fill="#020202" transform="translate(0,0)"/>
<path d="" fill="#000000" transform="translate(0,0)"/>
<path d="" fill="#000000" transform="translate(0,0)"/>
</svg>
